<svg xmlns="http://www.w3.org/2000/svg" viewBox="0 0 950 520">
  <defs>
    <linearGradient id="hdr62" x1="0%" y1="0%" x2="100%" y2="0%">
      <stop offset="0%" style="stop-color:#1a365d"/>
      <stop offset="100%" style="stop-color:#2c5282"/>
    </linearGradient>
  </defs>
  
  <rect width="950" height="520" fill="#f7fafc"/>
  <rect x="0" y="0" width="950" height="42" fill="url(#hdr62)"/>
  <text x="475" y="28" font-family="Arial" font-size="17" font-weight="bold" fill="white" text-anchor="middle">Figure 6.2: Governance Activities Matrix</text>
  
  <!-- Column Headers -->
  <rect x="120" y="55" width="830" height="30" fill="#2c5282"/>
  <text x="175" y="75" font-family="Arial" font-size="8" font-weight="bold" fill="white" text-anchor="middle">Conception</text>
  <text x="267" y="75" font-family="Arial" font-size="8" font-weight="bold" fill="white" text-anchor="middle">Requirements</text>
  <text x="359" y="75" font-family="Arial" font-size="8" font-weight="bold" fill="white" text-anchor="middle">Design</text>
  <text x="451" y="75" font-family="Arial" font-size="8" font-weight="bold" fill="white" text-anchor="middle">Build</text>
  <text x="543" y="75" font-family="Arial" font-size="8" font-weight="bold" fill="white" text-anchor="middle">Validate</text>
  <text x="635" y="75" font-family="Arial" font-size="8" font-weight="bold" fill="white" text-anchor="middle">Deploy</text>
  <text x="727" y="75" font-family="Arial" font-size="8" font-weight="bold" fill="white" text-anchor="middle">Operate</text>
  <text x="819" y="75" font-family="Arial" font-size="8" font-weight="bold" fill="white" text-anchor="middle">Monitor</text>
  <text x="911" y="75" font-family="Arial" font-size="8" font-weight="bold" fill="white" text-anchor="middle">Retire</text>
  
  <!-- Row Headers -->
  <rect x="0" y="85" width="120" height="420" fill="#3182ce"/>
  <text x="60" y="130" font-family="Arial" font-size="9" font-weight="bold" fill="white" text-anchor="middle" transform="rotate(-90 60 130)">Risk Assessment</text>
  <text x="60" y="190" font-family="Arial" font-size="9" font-weight="bold" fill="white" text-anchor="middle" transform="rotate(-90 60 190)">Legal Compliance</text>
  <text x="60" y="250" font-family="Arial" font-size="9" font-weight="bold" fill="white" text-anchor="middle" transform="rotate(-90 60 250)">Fairness</text>
  <text x="60" y="310" font-family="Arial" font-size="9" font-weight="bold" fill="white" text-anchor="middle" transform="rotate(-90 60 310)">Transparency</text>
  <text x="60" y="370" font-family="Arial" font-size="9" font-weight="bold" fill="white" text-anchor="middle" transform="rotate(-90 60 370)">Human Oversight</text>
  <text x="60" y="430" font-family="Arial" font-size="9" font-weight="bold" fill="white" text-anchor="middle" transform="rotate(-90 60 430)">Documentation</text>
  <text x="60" y="490" font-family="Arial" font-size="9" font-weight="bold" fill="white" text-anchor="middle" transform="rotate(-90 60 490)">Monitoring</text>
  
  <!-- Grid lines -->
  <line x1="120" y1="85" x2="120" y2="505" stroke="#a0aec0" stroke-width="1"/>
  <line x1="212" y1="55" x2="212" y2="505" stroke="#a0aec0" stroke-width="1"/>
  <line x1="304" y1="55" x2="304" y2="505" stroke="#a0aec0" stroke-width="1"/>
  <line x1="396" y1="55" x2="396" y2="505" stroke="#a0aec0" stroke-width="1"/>
  <line x1="488" y1="55" x2="488" y2="505" stroke="#a0aec0" stroke-width="1"/>
  <line x1="580" y1="55" x2="580" y2="505" stroke="#a0aec0" stroke-width="1"/>
  <line x1="672" y1="55" x2="672" y2="505" stroke="#a0aec0" stroke-width="1"/>
  <line x1="764" y1="55" x2="764" y2="505" stroke="#a0aec0" stroke-width="1"/>
  <line x1="856" y1="55" x2="856" y2="505" stroke="#a0aec0" stroke-width="1"/>
  
  <line x1="0" y1="145" x2="950" y2="145" stroke="#a0aec0" stroke-width="1"/>
  <line x1="0" y1="205" x2="950" y2="205" stroke="#a0aec0" stroke-width="1"/>
  <line x1="0" y1="265" x2="950" y2="265" stroke="#a0aec0" stroke-width="1"/>
  <line x1="0" y1="325" x2="950" y2="325" stroke="#a0aec0" stroke-width="1"/>
  <line x1="0" y1="385" x2="950" y2="385" stroke="#a0aec0" stroke-width="1"/>
  <line x1="0" y1="445" x2="950" y2="445" stroke="#a0aec0" stroke-width="1"/>
  <line x1="0" y1="505" x2="950" y2="505" stroke="#a0aec0" stroke-width="1"/>
  
  <!-- Row 1: Risk Assessment -->
  <rect x="121" y="86" width="90" height="58" fill="#c6f6d5"/>
  <text x="166" y="105" font-family="Arial" font-size="6" fill="#276749" text-anchor="middle">Preliminary</text>
  <text x="166" y="115" font-family="Arial" font-size="6" fill="#276749" text-anchor="middle">risk classify</text>
  <text x="166" y="130" font-family="Arial" font-size="6" fill="#276749" text-anchor="middle">●●●</text>
  
  <rect x="213" y="86" width="90" height="58" fill="#c6f6d5"/>
  <text x="258" y="105" font-family="Arial" font-size="6" fill="#276749" text-anchor="middle">Formal risk</text>
  <text x="258" y="115" font-family="Arial" font-size="6" fill="#276749" text-anchor="middle">assessment</text>
  <text x="258" y="130" font-family="Arial" font-size="6" fill="#276749" text-anchor="middle">●●●</text>
  
  <rect x="305" y="86" width="90" height="58" fill="#c6f6d5"/>
  <text x="350" y="105" font-family="Arial" font-size="6" fill="#276749" text-anchor="middle">Design risk</text>
  <text x="350" y="115" font-family="Arial" font-size="6" fill="#276749" text-anchor="middle">evaluation</text>
  <text x="350" y="130" font-family="Arial" font-size="6" fill="#276749" text-anchor="middle">●●○</text>
  
  <rect x="397" y="86" width="90" height="58" fill="#fefcbf"/>
  <text x="442" y="105" font-family="Arial" font-size="6" fill="#744210" text-anchor="middle">Build issue</text>
  <text x="442" y="115" font-family="Arial" font-size="6" fill="#744210" text-anchor="middle">monitoring</text>
  <text x="442" y="130" font-family="Arial" font-size="6" fill="#744210" text-anchor="middle">●○○</text>
  
  <rect x="489" y="86" width="90" height="58" fill="#c6f6d5"/>
  <text x="534" y="105" font-family="Arial" font-size="6" fill="#276749" text-anchor="middle">Risk test</text>
  <text x="534" y="115" font-family="Arial" font-size="6" fill="#276749" text-anchor="middle">validation</text>
  <text x="534" y="130" font-family="Arial" font-size="6" fill="#276749" text-anchor="middle">●●●</text>
  
  <rect x="581" y="86" width="90" height="58" fill="#c6f6d5"/>
  <text x="626" y="105" font-family="Arial" font-size="6" fill="#276749" text-anchor="middle">Deploy risk</text>
  <text x="626" y="115" font-family="Arial" font-size="6" fill="#276749" text-anchor="middle">check</text>
  <text x="626" y="130" font-family="Arial" font-size="6" fill="#276749" text-anchor="middle">●●○</text>
  
  <rect x="673" y="86" width="90" height="58" fill="#fefcbf"/>
  <text x="718" y="105" font-family="Arial" font-size="6" fill="#744210" text-anchor="middle">Risk indicator</text>
  <text x="718" y="115" font-family="Arial" font-size="6" fill="#744210" text-anchor="middle">monitoring</text>
  <text x="718" y="130" font-family="Arial" font-size="6" fill="#744210" text-anchor="middle">●○○</text>
  
  <rect x="765" y="86" width="90" height="58" fill="#c6f6d5"/>
  <text x="810" y="105" font-family="Arial" font-size="6" fill="#276749" text-anchor="middle">Risk trend</text>
  <text x="810" y="115" font-family="Arial" font-size="6" fill="#276749" text-anchor="middle">analysis</text>
  <text x="810" y="130" font-family="Arial" font-size="6" fill="#276749" text-anchor="middle">●●○</text>
  
  <rect x="857" y="86" width="92" height="58" fill="#fefcbf"/>
  <text x="903" y="105" font-family="Arial" font-size="6" fill="#744210" text-anchor="middle">Retire risk</text>
  <text x="903" y="115" font-family="Arial" font-size="6" fill="#744210" text-anchor="middle">assess</text>
  <text x="903" y="130" font-family="Arial" font-size="6" fill="#744210" text-anchor="middle">●○○</text>
  
  <!-- Row 2: Legal Compliance -->
  <rect x="121" y="146" width="90" height="58" fill="#fefcbf"/>
  <text x="166" y="165" font-family="Arial" font-size="6" fill="#744210" text-anchor="middle">Initial legal</text>
  <text x="166" y="175" font-family="Arial" font-size="6" fill="#744210" text-anchor="middle">screen</text>
  <text x="166" y="190" font-family="Arial" font-size="6" fill="#744210" text-anchor="middle">●○○</text>
  
  <rect x="213" y="146" width="90" height="58" fill="#c6f6d5"/>
  <text x="258" y="165" font-family="Arial" font-size="6" fill="#276749" text-anchor="middle">Legal req</text>
  <text x="258" y="175" font-family="Arial" font-size="6" fill="#276749" text-anchor="middle">analysis</text>
  <text x="258" y="190" font-family="Arial" font-size="6" fill="#276749" text-anchor="middle">●●●</text>
  
  <rect x="305" y="146" width="90" height="58" fill="#c6f6d5"/>
  <text x="350" y="165" font-family="Arial" font-size="6" fill="#276749" text-anchor="middle">Compliance</text>
  <text x="350" y="175" font-family="Arial" font-size="6" fill="#276749" text-anchor="middle">design review</text>
  <text x="350" y="190" font-family="Arial" font-size="6" fill="#276749" text-anchor="middle">●●○</text>
  
  <rect x="397" y="146" width="90" height="58" fill="#fefcbf"/>
  <text x="442" y="165" font-family="Arial" font-size="6" fill="#744210" text-anchor="middle">Issue</text>
  <text x="442" y="175" font-family="Arial" font-size="6" fill="#744210" text-anchor="middle">consult</text>
  <text x="442" y="190" font-family="Arial" font-size="6" fill="#744210" text-anchor="middle">●○○</text>
  
  <rect x="489" y="146" width="90" height="58" fill="#c6f6d5"/>
  <text x="534" y="165" font-family="Arial" font-size="6" fill="#276749" text-anchor="middle">Compliance</text>
  <text x="534" y="175" font-family="Arial" font-size="6" fill="#276749" text-anchor="middle">verification</text>
  <text x="534" y="190" font-family="Arial" font-size="6" fill="#276749" text-anchor="middle">●●●</text>
  
  <rect x="581" y="146" width="90" height="58" fill="#c6f6d5"/>
  <text x="626" y="165" font-family="Arial" font-size="6" fill="#276749" text-anchor="middle">Reg filings</text>
  <text x="626" y="175" font-family="Arial" font-size="6" fill="#276749" text-anchor="middle">notifications</text>
  <text x="626" y="190" font-family="Arial" font-size="6" fill="#276749" text-anchor="middle">●●○</text>
  
  <rect x="673" y="146" width="90" height="58" fill="#c6f6d5"/>
  <text x="718" y="165" font-family="Arial" font-size="6" fill="#276749" text-anchor="middle">Ongoing</text>
  <text x="718" y="175" font-family="Arial" font-size="6" fill="#276749" text-anchor="middle">compliance</text>
  <text x="718" y="190" font-family="Arial" font-size="6" fill="#276749" text-anchor="middle">●●○</text>
  
  <rect x="765" y="146" width="90" height="58" fill="#c6f6d5"/>
  <text x="810" y="165" font-family="Arial" font-size="6" fill="#276749" text-anchor="middle">Reg</text>
  <text x="810" y="175" font-family="Arial" font-size="6" fill="#276749" text-anchor="middle">reporting</text>
  <text x="810" y="190" font-family="Arial" font-size="6" fill="#276749" text-anchor="middle">●●○</text>
  
  <rect x="857" y="146" width="92" height="58" fill="#c6f6d5"/>
  <text x="903" y="165" font-family="Arial" font-size="6" fill="#276749" text-anchor="middle">Data ret.</text>
  <text x="903" y="175" font-family="Arial" font-size="6" fill="#276749" text-anchor="middle">compliance</text>
  <text x="903" y="190" font-family="Arial" font-size="6" fill="#276749" text-anchor="middle">●●○</text>
  
  <!-- Row 3: Fairness -->
  <rect x="121" y="206" width="90" height="58" fill="#fefcbf"/>
  <text x="166" y="225" font-family="Arial" font-size="6" fill="#744210" text-anchor="middle">Fairness</text>
  <text x="166" y="235" font-family="Arial" font-size="6" fill="#744210" text-anchor="middle">concerns ID</text>
  <text x="166" y="250" font-family="Arial" font-size="6" fill="#744210" text-anchor="middle">●○○</text>
  
  <rect x="213" y="206" width="90" height="58" fill="#c6f6d5"/>
  <text x="258" y="225" font-family="Arial" font-size="6" fill="#276749" text-anchor="middle">Fairness</text>
  <text x="258" y="235" font-family="Arial" font-size="6" fill="#276749" text-anchor="middle">criteria def</text>
  <text x="258" y="250" font-family="Arial" font-size="6" fill="#276749" text-anchor="middle">●●●</text>
  
  <rect x="305" y="206" width="90" height="58" fill="#c6f6d5"/>
  <text x="350" y="225" font-family="Arial" font-size="6" fill="#276749" text-anchor="middle">Bias mitigation</text>
  <text x="350" y="235" font-family="Arial" font-size="6" fill="#276749" text-anchor="middle">planning</text>
  <text x="350" y="250" font-family="Arial" font-size="6" fill="#276749" text-anchor="middle">●●●</text>
  
  <rect x="397" y="206" width="90" height="58" fill="#c6f6d5"/>
  <text x="442" y="225" font-family="Arial" font-size="6" fill="#276749" text-anchor="middle">Data bias</text>
  <text x="442" y="235" font-family="Arial" font-size="6" fill="#276749" text-anchor="middle">analysis</text>
  <text x="442" y="250" font-family="Arial" font-size="6" fill="#276749" text-anchor="middle">●●○</text>
  
  <rect x="489" y="206" width="90" height="58" fill="#c6f6d5"/>
  <text x="534" y="225" font-family="Arial" font-size="6" fill="#276749" text-anchor="middle">Fairness</text>
  <text x="534" y="235" font-family="Arial" font-size="6" fill="#276749" text-anchor="middle">testing</text>
  <text x="534" y="250" font-family="Arial" font-size="6" fill="#276749" text-anchor="middle">●●●</text>
  
  <rect x="581" y="206" width="90" height="58" fill="#fefcbf"/>
  <text x="626" y="225" font-family="Arial" font-size="6" fill="#744210" text-anchor="middle">Pre-deploy</text>
  <text x="626" y="235" font-family="Arial" font-size="6" fill="#744210" text-anchor="middle">check</text>
  <text x="626" y="250" font-family="Arial" font-size="6" fill="#744210" text-anchor="middle">●○○</text>
  
  <rect x="673" y="206" width="90" height="58" fill="#fefcbf"/>
  <text x="718" y="225" font-family="Arial" font-size="6" fill="#744210" text-anchor="middle">Issue</text>
  <text x="718" y="235" font-family="Arial" font-size="6" fill="#744210" text-anchor="middle">response</text>
  <text x="718" y="250" font-family="Arial" font-size="6" fill="#744210" text-anchor="middle">●○○</text>
  
  <rect x="765" y="206" width="90" height="58" fill="#c6f6d5"/>
  <text x="810" y="225" font-family="Arial" font-size="6" fill="#276749" text-anchor="middle">Fairness</text>
  <text x="810" y="235" font-family="Arial" font-size="6" fill="#276749" text-anchor="middle">monitoring</text>
  <text x="810" y="250" font-family="Arial" font-size="6" fill="#276749" text-anchor="middle">●●●</text>
  
  <rect x="857" y="206" width="92" height="58" fill="#e2e8f0"/>
  <text x="903" y="235" font-family="Arial" font-size="6" fill="#718096" text-anchor="middle">—</text>
  
  <!-- Rows 4-7 simplified with colors showing intensity -->
  <!-- Row 4: Transparency -->
  <rect x="121" y="266" width="90" height="58" fill="#fefcbf"/>
  <rect x="213" y="266" width="90" height="58" fill="#c6f6d5"/>
  <rect x="305" y="266" width="90" height="58" fill="#c6f6d5"/>
  <rect x="397" y="266" width="90" height="58" fill="#fefcbf"/>
  <rect x="489" y="266" width="90" height="58" fill="#c6f6d5"/>
  <rect x="581" y="266" width="90" height="58" fill="#c6f6d5"/>
  <rect x="673" y="266" width="90" height="58" fill="#c6f6d5"/>
  <rect x="765" y="266" width="90" height="58" fill="#fefcbf"/>
  <rect x="857" y="266" width="92" height="58" fill="#c6f6d5"/>
  
  <text x="166" y="295" font-family="Arial" font-size="6" fill="#744210" text-anchor="middle">●○○</text>
  <text x="258" y="295" font-family="Arial" font-size="6" fill="#276749" text-anchor="middle">●●●</text>
  <text x="350" y="295" font-family="Arial" font-size="6" fill="#276749" text-anchor="middle">●●●</text>
  <text x="442" y="295" font-family="Arial" font-size="6" fill="#744210" text-anchor="middle">●○○</text>
  <text x="534" y="295" font-family="Arial" font-size="6" fill="#276749" text-anchor="middle">●●○</text>
  <text x="626" y="295" font-family="Arial" font-size="6" fill="#276749" text-anchor="middle">●●●</text>
  <text x="718" y="295" font-family="Arial" font-size="6" fill="#276749" text-anchor="middle">●●○</text>
  <text x="810" y="295" font-family="Arial" font-size="6" fill="#744210" text-anchor="middle">●○○</text>
  <text x="903" y="295" font-family="Arial" font-size="6" fill="#276749" text-anchor="middle">●●○</text>
  
  <!-- Row 5: Human Oversight -->
  <rect x="121" y="326" width="90" height="58" fill="#fefcbf"/>
  <rect x="213" y="326" width="90" height="58" fill="#c6f6d5"/>
  <rect x="305" y="326" width="90" height="58" fill="#c6f6d5"/>
  <rect x="397" y="326" width="90" height="58" fill="#fefcbf"/>
  <rect x="489" y="326" width="90" height="58" fill="#c6f6d5"/>
  <rect x="581" y="326" width="90" height="58" fill="#c6f6d5"/>
  <rect x="673" y="326" width="90" height="58" fill="#c6f6d5"/>
  <rect x="765" y="326" width="90" height="58" fill="#c6f6d5"/>
  <rect x="857" y="326" width="92" height="58" fill="#e2e8f0"/>
  
  <text x="166" y="355" font-family="Arial" font-size="6" fill="#744210" text-anchor="middle">●○○</text>
  <text x="258" y="355" font-family="Arial" font-size="6" fill="#276749" text-anchor="middle">●●○</text>
  <text x="350" y="355" font-family="Arial" font-size="6" fill="#276749" text-anchor="middle">●●●</text>
  <text x="442" y="355" font-family="Arial" font-size="6" fill="#744210" text-anchor="middle">●○○</text>
  <text x="534" y="355" font-family="Arial" font-size="6" fill="#276749" text-anchor="middle">●●○</text>
  <text x="626" y="355" font-family="Arial" font-size="6" fill="#276749" text-anchor="middle">●●●</text>
  <text x="718" y="355" font-family="Arial" font-size="6" fill="#276749" text-anchor="middle">●●●</text>
  <text x="810" y="355" font-family="Arial" font-size="6" fill="#276749" text-anchor="middle">●●○</text>
  <text x="903" y="355" font-family="Arial" font-size="6" fill="#718096" text-anchor="middle">—</text>
  
  <!-- Row 6: Documentation -->
  <rect x="121" y="386" width="90" height="58" fill="#c6f6d5"/>
  <rect x="213" y="386" width="90" height="58" fill="#c6f6d5"/>
  <rect x="305" y="386" width="90" height="58" fill="#c6f6d5"/>
  <rect x="397" y="386" width="90" height="58" fill="#c6f6d5"/>
  <rect x="489" y="386" width="90" height="58" fill="#c6f6d5"/>
  <rect x="581" y="386" width="90" height="58" fill="#c6f6d5"/>
  <rect x="673" y="386" width="90" height="58" fill="#c6f6d5"/>
  <rect x="765" y="386" width="90" height="58" fill="#c6f6d5"/>
  <rect x="857" y="386" width="92" height="58" fill="#c6f6d5"/>
  
  <text x="166" y="415" font-family="Arial" font-size="6" fill="#276749" text-anchor="middle">●●○</text>
  <text x="258" y="415" font-family="Arial" font-size="6" fill="#276749" text-anchor="middle">●●●</text>
  <text x="350" y="415" font-family="Arial" font-size="6" fill="#276749" text-anchor="middle">●●●</text>
  <text x="442" y="415" font-family="Arial" font-size="6" fill="#276749" text-anchor="middle">●●●</text>
  <text x="534" y="415" font-family="Arial" font-size="6" fill="#276749" text-anchor="middle">●●●</text>
  <text x="626" y="415" font-family="Arial" font-size="6" fill="#276749" text-anchor="middle">●●○</text>
  <text x="718" y="415" font-family="Arial" font-size="6" fill="#276749" text-anchor="middle">●●○</text>
  <text x="810" y="415" font-family="Arial" font-size="6" fill="#276749" text-anchor="middle">●●○</text>
  <text x="903" y="415" font-family="Arial" font-size="6" fill="#276749" text-anchor="middle">●●●</text>
  
  <!-- Row 7: Monitoring -->
  <rect x="121" y="446" width="90" height="58" fill="#e2e8f0"/>
  <rect x="213" y="446" width="90" height="58" fill="#fefcbf"/>
  <rect x="305" y="446" width="90" height="58" fill="#fefcbf"/>
  <rect x="397" y="446" width="90" height="58" fill="#fefcbf"/>
  <rect x="489" y="446" width="90" height="58" fill="#fefcbf"/>
  <rect x="581" y="446" width="90" height="58" fill="#c6f6d5"/>
  <rect x="673" y="446" width="90" height="58" fill="#c6f6d5"/>
  <rect x="765" y="446" width="90" height="58" fill="#c6f6d5"/>
  <rect x="857" y="446" width="92" height="58" fill="#fefcbf"/>
  
  <text x="166" y="475" font-family="Arial" font-size="6" fill="#718096" text-anchor="middle">—</text>
  <text x="258" y="475" font-family="Arial" font-size="6" fill="#744210" text-anchor="middle">●○○</text>
  <text x="350" y="475" font-family="Arial" font-size="6" fill="#744210" text-anchor="middle">●○○</text>
  <text x="442" y="475" font-family="Arial" font-size="6" fill="#744210" text-anchor="middle">●○○</text>
  <text x="534" y="475" font-family="Arial" font-size="6" fill="#744210" text-anchor="middle">●○○</text>
  <text x="626" y="475" font-family="Arial" font-size="6" fill="#276749" text-anchor="middle">●●●</text>
  <text x="718" y="475" font-family="Arial" font-size="6" fill="#276749" text-anchor="middle">●●●</text>
  <text x="810" y="475" font-family="Arial" font-size="6" fill="#276749" text-anchor="middle">●●●</text>
  <text x="903" y="475" font-family="Arial" font-size="6" fill="#744210" text-anchor="middle">●○○</text>
  
  <!-- Legend -->
  <rect x="125" y="508" width="12" height="10" fill="#c6f6d5"/>
  <text x="142" y="516" font-family="Arial" font-size="7" fill="#4a5568">High activity</text>
  <rect x="205" y="508" width="12" height="10" fill="#fefcbf"/>
  <text x="222" y="516" font-family="Arial" font-size="7" fill="#4a5568">Moderate activity</text>
  <rect x="310" y="508" width="12" height="10" fill="#e2e8f0"/>
  <text x="327" y="516" font-family="Arial" font-size="7" fill="#4a5568">Not applicable</text>
</svg>